<?xml version="1.0" standalone="no"?>
<!DOCTYPE svg PUBLIC "-//W3C//DTD SVG 20010904//EN"
 "http://www.w3.org/TR/2001/REC-SVG-20010904/DTD/svg10.dtd">
<svg version="1.0" xmlns="http://www.w3.org/2000/svg"
 width="512.000000pt" height="512.000000pt" viewBox="0 0 512.000000 512.000000"
 preserveAspectRatio="xMidYMid meet">

<g transform="translate(0.000000,512.000000) scale(0.100000,-0.100000)"
fill="#000000" stroke="none">
<path d="M2415 4213 c-415 -51 -753 -210 -1022 -480 -272 -274 -429 -606 -474
-999 -40 -357 92 -793 334 -1101 26 -35 46 -67 42 -73 -3 -6 0 -7 9 -4 9 3 16
2 16 -3 0 -6 36 -45 79 -89 66 -64 78 -81 68 -94 -9 -12 -9 -13 3 -3 10 10 19
8 42 -8 15 -11 25 -25 22 -31 -4 -6 -3 -8 3 -5 6 4 19 0 29 -8 17 -13 17 -16
4 -25 -12 -8 -10 -9 10 -5 18 3 34 -3 55 -21 l30 -26 -34 17 c-21 10 -30 12
-26 4 6 -9 -11 -10 -76 -5 -46 4 -85 12 -87 17 -2 5 -14 9 -27 9 -13 0 -27 5
-30 10 -10 16 -25 12 -25 -7 0 -15 -2 -15 -19 1 -11 10 -34 21 -53 26 -56 14
-102 33 -135 57 -17 13 -36 23 -41 23 -5 0 -15 7 -22 15 -9 11 -9 15 -1 15 7
0 9 5 6 10 -3 5 -15 10 -25 10 -11 0 -41 21 -67 48 -27 26 -65 55 -86 64 -20
10 -37 23 -37 29 0 15 -71 80 -81 73 -5 -3 -12 2 -15 10 -3 9 -10 16 -16 16
-15 0 -57 51 -52 64 5 14 -52 50 -66 41 -6 -3 -10 0 -10 7 0 13 -24 29 -63 44
-9 3 -17 11 -17 18 0 6 -10 17 -21 25 -16 9 -18 15 -10 20 9 6 5 13 -13 24
-18 12 -26 13 -29 4 -3 -6 -6 0 -6 14 -1 15 -12 37 -26 50 -13 13 -25 28 -25
33 0 5 -6 17 -14 25 -8 9 -16 23 -18 31 -5 22 -51 61 -66 55 -7 -3 -12 5 -12
21 0 16 -10 34 -25 46 -14 11 -25 25 -24 31 3 28 -3 44 -26 69 -14 15 -25 32
-25 38 0 12 -32 45 -51 53 -9 4 -8 6 5 6 15 1 16 4 6 16 -7 8 -18 15 -25 15
-17 0 -45 33 -45 53 0 9 -6 20 -13 24 -22 14 -47 56 -47 82 0 13 -10 33 -23
44 -15 13 -18 21 -9 24 18 7 16 63 -3 63 -13 0 -15 -158 -15 -1360 l0 -1360
1670 0 c1449 0 1669 2 1664 14 -6 16 -54 51 -54 40 0 -4 -7 -1 -15 6 -8 7 -12
16 -9 21 3 5 -8 21 -23 35 -23 21 -29 23 -31 10 -4 -20 -16 -20 -32 -1 -10 12
-10 15 1 15 8 0 1 11 -16 24 -16 13 -33 22 -37 20 -3 -2 -20 9 -36 26 -17 16
-36 30 -42 30 -6 0 -25 14 -42 30 -17 17 -33 29 -36 26 -2 -3 -22 8 -42 24
-20 16 -40 27 -42 24 -3 -3 -19 9 -36 26 -17 16 -36 30 -42 30 -6 0 -25 14
-42 30 -16 17 -34 28 -39 25 -5 -4 -6 1 -3 9 5 13 -2 16 -36 16 -34 0 -41 3
-36 16 4 10 -5 27 -24 46 -22 21 -30 39 -30 64 0 24 -5 34 -15 34 -27 0 -16
17 23 33 33 15 71 24 110 26 7 1 11 5 8 10 -3 5 9 11 27 14 43 6 157 35 234
58 34 10 75 19 91 19 16 0 32 3 36 7 4 5 11 8 14 8 13 1 107 49 120 61 18 18
16 84 -3 84 -8 0 -20 9 -27 20 -7 11 -18 20 -24 20 -6 0 -19 9 -29 20 -9 10
-20 19 -24 18 -3 0 -15 0 -25 1 -23 1 -16 10 12 16 41 8 273 124 359 181 263
171 447 381 582 664 114 240 172 515 157 753 -19 323 -107 588 -278 841 -85
125 -303 342 -428 425 -171 113 -400 214 -583 256 -162 37 -386 54 -512 38z
m270 -588 c135 -19 231 -47 328 -97 281 -141 459 -356 538 -648 20 -74 23
-109 24 -270 0 -189 -17 -327 -37 -298 -6 9 -7 6 -3 -8 3 -12 -1 -40 -10 -63
-8 -23 -22 -60 -31 -83 -8 -24 -21 -49 -27 -56 -6 -8 -12 -20 -13 -28 -3 -21
-74 -134 -85 -134 -5 0 -8 -6 -7 -12 2 -7 -4 -11 -12 -10 -8 2 -12 0 -8 -3 11
-11 -62 -96 -76 -88 -6 3 -8 3 -4 -2 10 -10 -43 -56 -55 -48 -6 3 -7 1 -3 -5
8 -14 -142 -115 -161 -108 -8 3 -12 2 -9 -3 8 -12 -95 -56 -194 -82 -74 -20
-110 -23 -270 -23 -194 -1 -241 6 -370 56 -147 56 -349 191 -336 225 3 8 1 11
-4 8 -10 -6 -80 52 -80 67 0 4 -14 22 -30 40 -17 17 -28 38 -25 45 3 9 0 11
-6 7 -8 -4 -9 1 -4 17 4 16 3 20 -3 11 -7 -10 -16 -2 -36 32 -15 26 -24 51
-20 58 4 6 3 8 -2 5 -15 -9 -43 69 -85 233 -72 287 -4 626 173 868 146 198
400 350 653 391 151 24 164 24 290 6z m-1047 -2387 c8 -10 5 -13 -13 -13 -14
0 -21 5 -18 13 3 6 9 12 13 12 4 0 12 -6 18 -12z"/>
<path d="M1741 2994 c0 -11 3 -14 6 -6 3 7 2 16 -1 19 -3 4 -6 -2 -5 -13z"/>
<path d="M1707 2930 c-55 -127 -79 -327 -57 -482 17 -126 15 -119 29 -152 6
-16 9 -36 6 -45 -3 -8 -3 -12 1 -8 4 4 20 -23 36 -60 21 -51 25 -69 15 -76 -8
-6 -7 -7 5 -4 12 4 23 -5 37 -29 11 -19 16 -34 12 -34 -5 0 -12 7 -15 16 -6
17 -26 10 -26 -9 0 -7 4 -6 10 3 5 8 10 11 10 5 0 -5 9 -21 20 -35 17 -21 19
-22 14 -5 -6 20 -5 20 10 1 9 -11 16 -26 16 -33 0 -7 6 -12 13 -10 11 2 12 -2
5 -34 -2 -6 6 -12 18 -13 23 -3 43 -15 105 -68 100 -86 217 -147 339 -178 98
-25 295 -49 313 -38 7 4 31 8 54 8 24 0 90 14 149 31 171 49 297 125 408 248
17 19 38 41 47 50 9 9 28 38 44 64 24 41 29 46 44 35 14 -11 14 -11 3 3 -10
14 -10 22 3 45 99 192 124 426 73 689 -12 59 -38 117 -38 84 0 -11 -8 -15 -25
-14 -13 2 -24 0 -24 -3 3 -21 -3 -32 -16 -32 -25 0 -145 -42 -145 -51 0 -5 -5
-9 -11 -9 -6 0 -40 -14 -76 -31 -35 -17 -67 -28 -70 -26 -8 9 -43 -27 -43 -45
0 -32 -42 -65 -87 -69 -34 -4 -43 -1 -43 11 0 13 -2 13 -9 1 -7 -11 -10 -7
-14 15 -3 21 -4 17 -6 -16 -2 -72 -20 -119 -62 -165 -98 -106 -289 -101 -401
9 -39 38 -47 32 -28 -18 7 -20 6 -26 -4 -26 -38 0 -84 99 -93 197 -4 43 -9 70
-11 60 -4 -18 -5 -18 -23 -1 -20 18 -30 22 -142 63 -54 19 -198 105 -205 123
-2 4 -8 8 -13 8 -6 0 -27 11 -47 25 -43 30 -59 31 -65 8 -4 -17 -5 -17 -6 0 0
10 3 26 8 36 7 13 5 17 -8 18 -11 1 -23 -12 -34 -37z m442 -747 c28 -50 29
-50 60 -15 16 17 39 32 50 32 20 0 21 -6 21 -125 0 -103 -3 -127 -15 -131 -27
-11 -45 16 -46 65 0 35 -2 41 -9 25 -13 -33 -42 -39 -62 -14 -18 22 -18 22
-18 -18 0 -42 -18 -66 -43 -56 -21 8 -27 36 -27 126 0 101 10 128 49 128 18 0
34 -7 40 -17z m221 7 c10 -6 17 -33 20 -87 5 -71 7 -78 28 -81 21 -3 22 -1 22
82 0 82 1 86 24 92 14 3 30 3 35 -1 7 -3 11 -45 11 -101 0 -92 -1 -97 -29
-125 -39 -39 -100 -41 -136 -4 -23 22 -25 32 -25 118 0 106 12 131 50 107z
m238 -93 c2 -87 5 -98 20 -95 14 3 17 18 20 96 l3 92 29 0 30 0 0 -92 c0 -111
-12 -138 -63 -155 -39 -13 -72 -5 -89 21 -10 14 -10 220 -1 230 4 4 16 6 28 4
18 -3 20 -11 23 -101z m212 -16 c0 -123 -9 -151 -45 -137 -12 4 -15 27 -15
124 0 65 3 122 7 125 3 4 17 7 30 7 23 0 23 -1 23 -119z"/>
<path d="M2554 2890 c-5 -21 -12 -30 -25 -30 -11 0 -19 -5 -19 -11 0 -5 -5 -7
-10 -4 -7 4 -10 -39 -8 -131 l3 -138 34 -23 c19 -13 45 -23 58 -23 36 0 80 26
87 52 3 13 6 94 6 181 l0 157 -60 0 c-59 0 -61 -1 -66 -30z"/>
<path d="M1711 2134 c0 -11 3 -14 6 -6 3 7 2 16 -1 19 -3 4 -6 -2 -5 -13z"/>
<path d="M1685 2070 c21 -24 26 -25 19 -6 -3 8 -13 17 -22 21 -13 5 -13 2 3
-15z"/>
<path d="M1760 2021 c0 -6 4 -13 10 -16 6 -3 7 1 4 9 -7 18 -14 21 -14 7z"/>
<path d="M1795 1911 c-6 -10 11 -24 33 -27 10 -2 8 3 -4 17 -20 22 -21 22 -29
10z"/>
<path d="M1871 1909 c-1 -9 7 -23 17 -30 15 -12 16 -12 6 1 -6 8 -14 22 -17
30 -5 13 -6 12 -6 -1z"/>
<path d="M1896 1821 c-3 -5 2 -15 12 -22 15 -12 16 -12 5 2 -7 9 -10 19 -6 22
3 4 4 7 0 7 -3 0 -8 -4 -11 -9z"/>
<path d="M2758 1643 c7 -3 16 -2 19 1 4 3 -2 6 -13 5 -11 0 -14 -3 -6 -6z"/>
<path d="M2700 1636 c0 -2 7 -7 16 -10 8 -3 12 -2 9 4 -6 10 -25 14 -25 6z"/>
<path d="M3360 15 c0 -8 7 -15 16 -15 14 0 14 3 4 15 -7 8 -14 15 -16 15 -2 0
-4 -7 -4 -15z"/>
</g>
</svg>
